<svg xmlns="http://www.w3.org/2000/svg" viewBox="0 0 112 112">
  <defs>
    <linearGradient id="frame" x1="26" y1="20" x2="83" y2="95" gradientUnits="userSpaceOnUse">
      <stop offset="0" stop-color="#59b93c"/>
      <stop offset=".65" stop-color="#55b93c"/>
      <stop offset=".82" stop-color="#08a27d"/>
      <stop offset="1" stop-color="#008c77"/>
    </linearGradient>
    <linearGradient id="tool" x1="43" y1="73" x2="72" y2="43" gradientUnits="userSpaceOnUse">
      <stop offset="0" stop-color="#08a27d"/>
      <stop offset=".38" stop-color="#55b93c"/>
      <stop offset="1" stop-color="#59b93c"/>
    </linearGradient>
  </defs>
  <rect x="29" y="14" width="55" height="84" rx="15" fill="none" stroke="url(#frame)" stroke-width="8" transform="rotate(30 56.5 56)"/>
  <path fill="url(#tool)" d="M74.2 38.2a13.2 13.2 0 0 0-15.4 17L42.3 71.7a6.5 6.5 0 1 0 9.2 9.2L68 64.4a13.2 13.2 0 0 0 17-15.4l-7.5 7.5-7-1.9-1.9-7 7.5-7.5c-.6-.4-1.2-.7-1.9-.9v-1ZM47 78.3a2.8 2.8 0 1 1 0-5.6 2.8 2.8 0 0 1 0 5.6Z"/>
  <path fill="#fff" d="m62.4 50.2 4.4-4.4 1.8 1.8-2 2 2.9.8-.7 2.5-6.4-1.7v-1Zm-2.2 4.2 6.4 1.7-.7 2.5-2.8-.7.9 2.7-2.5.9-2.1-6.3.8-.8Z"/>
</svg>
